<svg width="17" height="17" viewBox="0 0 17 17" fill="none" xmlns="http://www.w3.org/2000/svg">
<path fill-rule="evenodd" clip-rule="evenodd" d="M8.79163 1.91666C4.99467 1.91666 1.91663 4.9947 1.91663 8.79166C1.91663 12.5886 4.99467 15.6667 8.79163 15.6667C12.5886 15.6667 15.6666 12.5886 15.6666 8.79166C15.6666 4.9947 12.5886 1.91666 8.79163 1.91666ZM0.666626 8.79166C0.666626 4.30434 4.30431 0.666656 8.79163 0.666656C13.2789 0.666656 16.9166 4.30434 16.9166 8.79166C16.9166 13.279 13.2789 16.9167 8.79163 16.9167C4.30431 16.9167 0.666626 13.279 0.666626 8.79166Z" fill="#0D1619"/>
<path fill-rule="evenodd" clip-rule="evenodd" d="M7.54163 8.16665C7.54163 7.82148 7.82145 7.54165 8.16663 7.54165H8.79163C9.1368 7.54165 9.41663 7.82148 9.41663 8.16665V11.9167C9.7618 11.9167 10.0416 12.1965 10.0416 12.5417C10.0416 12.8868 9.7618 13.1667 9.41663 13.1667H8.79163C8.44645 13.1667 8.16663 12.8868 8.16663 12.5417V8.79165C7.82145 8.79165 7.54163 8.51183 7.54163 8.16665Z" fill="#0D1619"/>
<path d="M8.63538 6.29166C9.15314 6.29166 9.57288 5.87192 9.57288 5.35416C9.57288 4.83639 9.15314 4.41666 8.63538 4.41666C8.11761 4.41666 7.69788 4.83639 7.69788 5.35416C7.69788 5.87192 8.11761 6.29166 8.63538 6.29166Z" fill="#0D1619"/>
</svg>
