<svg width="16" height="16" viewBox="0 0 16 16" fill="none" xmlns="http://www.w3.org/2000/svg">
<path fill-rule="evenodd" clip-rule="evenodd" d="M11.125 0.5C10.9592 0.5 10.7951 0.53297 10.6422 0.59699C10.4902 0.660648 10.3523 0.753741 10.2364 0.870903L0.861653 10.2456C0.746439 10.3614 0.655193 10.4988 0.593136 10.6499C0.530853 10.8015 0.5 10.9609 0.5 11.124V14.6161C0.5 14.9477 0.631696 15.2656 0.866117 15.5C1.10054 15.7344 1.41848 15.8661 1.75 15.8661H5.24219C5.44476 15.8661 5.57825 15.8297 5.71628 15.773C5.86737 15.7109 6.00475 15.6197 6.12053 15.5045L15.4953 6.12971C15.6124 6.01382 15.7055 5.87592 15.7692 5.72391C15.8332 5.57101 15.8661 5.40691 15.8661 5.24114C15.8661 5.07538 15.8332 4.91127 15.7692 4.75837C15.7055 4.60636 15.6124 4.46844 15.4953 4.35254L12.0136 0.870847C11.8977 0.753711 11.7598 0.660638 11.6078 0.59699C11.4549 0.53297 11.2908 0.5 11.125 0.5ZM8.625 4.25003L1.75 11.125V14.6161H5.24112L12.1161 7.74114L8.625 4.25003ZM9.50888 3.36614L13 6.85726L14.6127 5.23777L11.1216 1.7534L9.50888 3.36614Z" fill="#0D1619"/>
</svg>
