<svg width="20" height="15" viewBox="0 0 20 15" fill="none" xmlns="http://www.w3.org/2000/svg">
<path fill-rule="evenodd" clip-rule="evenodd" d="M10 5.4375C8.61933 5.4375 7.50004 6.55679 7.50004 7.9375C7.50004 9.31821 8.61933 10.4375 10 10.4375C11.3807 10.4375 12.5 9.31821 12.5 7.9375C12.5 6.55679 11.3807 5.4375 10 5.4375ZM6.25004 7.9375C6.25004 5.86643 7.92897 4.1875 10 4.1875C12.0711 4.1875 13.75 5.86643 13.75 7.9375C13.75 9.15329 13.1715 10.234 12.2746 10.9192C12.5188 11.0269 12.7559 11.1523 12.9839 11.2947C13.8788 11.8537 14.5987 12.6527 15.0617 13.6008C15.2131 13.9109 15.0845 14.2852 14.7743 14.4366C14.4641 14.5881 14.0899 14.4594 13.9384 14.1492C13.5782 13.4115 13.0181 12.7898 12.3218 12.355C11.6255 11.9201 10.821 11.6895 10.0001 11.6895C9.17912 11.6895 8.37467 11.9201 7.67837 12.355C6.98207 12.7898 6.4219 13.4115 6.06169 14.1492C5.91023 14.4594 5.53601 14.5881 5.22583 14.4366C4.91566 14.2852 4.78699 13.9109 4.93845 13.6008C5.40139 12.6527 6.12132 11.8537 7.01621 11.2947C7.24426 11.1523 7.48133 11.0269 7.72548 10.9192C6.82863 10.234 6.25004 9.15331 6.25004 7.9375Z" fill="#0D1619"/>
<path d="M4.10472 1.77953C4.44313 1.66941 4.80589 1.65786 5.15061 1.74625C5.49534 1.83463 5.80779 2.01929 6.05146 2.27866C6.29514 2.53802 6.45996 2.86137 6.52669 3.21094C6.59141 3.54999 6.91874 3.77239 7.25779 3.70766C7.59685 3.64294 7.81924 3.31562 7.75452 2.97656C7.64331 2.39396 7.3686 1.85503 6.96247 1.42276C6.55635 0.990486 6.0356 0.682716 5.46106 0.53541C4.88652 0.388104 4.28192 0.407347 3.71791 0.59089C3.1539 0.774432 2.65377 1.11469 2.27596 1.57192C1.89815 2.02914 1.65826 2.58444 1.58432 3.17294C1.51038 3.76144 1.60545 4.35882 1.85841 4.8953C2.03337 5.26634 2.27887 5.59765 2.57941 5.87169C2.48889 5.91079 2.39934 5.95247 2.31089 5.9967C1.57271 6.36579 0.93099 6.90226 0.436911 7.56333C0.230266 7.83982 0.286886 8.23148 0.563375 8.43812C0.839863 8.64477 1.23152 8.58815 1.43816 8.31166C1.81565 7.80659 2.30593 7.39672 2.8699 7.11473C3.43146 6.83396 4.06041 6.68771 4.68817 6.6875C5.03302 6.68715 5.31242 6.40755 5.31254 6.0627C5.31265 5.71785 5.03343 5.43808 4.68858 5.4375C4.33523 5.43648 3.98027 5.33563 3.6817 5.14652C3.38105 4.95611 3.14081 4.68406 2.98903 4.36218C2.83725 4.04029 2.78021 3.68186 2.82457 3.32876C2.86893 2.97567 3.01287 2.64249 3.23955 2.36815C3.46624 2.09382 3.76632 1.88966 4.10472 1.77953Z" fill="#0D1619"/>
<path d="M14.8494 1.74625C15.1941 1.65786 15.5569 1.66941 15.8953 1.77953C16.2337 1.88966 16.5337 2.09382 16.7604 2.36815C16.9871 2.64249 17.1311 2.97567 17.1754 3.32876C17.2198 3.68186 17.1627 4.04029 17.011 4.36218C16.8592 4.68406 16.6189 4.95611 16.3183 5.14652C16.0194 5.33586 15.6652 5.43671 15.3115 5.4375C14.9666 5.43808 14.6874 5.71785 14.6875 6.0627C14.6877 6.40755 14.9671 6.68715 15.3119 6.6875C15.9397 6.68771 16.5686 6.83396 17.1302 7.11473C17.6941 7.39672 18.1844 7.80659 18.5619 8.31166C18.7686 8.58815 19.1602 8.64477 19.4367 8.43812C19.7132 8.23148 19.7698 7.83982 19.5632 7.56333C19.0691 6.90226 18.4274 6.36579 17.6892 5.9967C17.6007 5.95246 17.5112 5.91078 17.4206 5.87167C17.7211 5.59763 17.9666 5.26633 18.1416 4.8953C18.3945 4.35882 18.4896 3.76144 18.4157 3.17294C18.3417 2.58444 18.1018 2.02914 17.724 1.57192C17.3462 1.11469 16.8461 0.774432 16.2821 0.59089C15.7181 0.407347 15.1135 0.388104 14.5389 0.53541C13.9644 0.682716 13.4436 0.990486 13.0375 1.42276C12.6314 1.85503 12.3567 2.39396 12.2455 2.97656C12.1807 3.31562 12.4031 3.64294 12.7422 3.70766C13.0813 3.77239 13.4086 3.54999 13.4733 3.21094C13.54 2.86137 13.7049 2.53802 13.9485 2.27866C14.1922 2.01929 14.5047 1.83463 14.8494 1.74625Z" fill="#0D1619"/>
</svg>
