<svg width="18" height="18" viewBox="0 0 18 18" fill="none" xmlns="http://www.w3.org/2000/svg">
<path fill-rule="evenodd" clip-rule="evenodd" d="M9 2.125C5.20304 2.125 2.125 5.20304 2.125 9C2.125 12.797 5.20304 15.875 9 15.875C12.797 15.875 15.875 12.797 15.875 9C15.875 5.20304 12.797 2.125 9 2.125ZM0.875 9C0.875 4.51269 4.51269 0.875 9 0.875C13.4873 0.875 17.125 4.51269 17.125 9C17.125 13.4873 13.4873 17.125 9 17.125C4.51269 17.125 0.875 13.4873 0.875 9ZM9.60741 5.01145C9.81063 5.12021 9.9375 5.332 9.9375 5.5625V12.75C9.9375 13.0952 9.65768 13.375 9.3125 13.375C8.96732 13.375 8.6875 13.0952 8.6875 12.75V6.73032L7.78419 7.33253C7.49698 7.524 7.10894 7.44639 6.91747 7.15919C6.726 6.87198 6.80361 6.48394 7.09081 6.29247L8.96581 5.04247C9.1576 4.91461 9.40419 4.90269 9.60741 5.01145Z" fill="#0D1619"/>
</svg>
