<svg width="18" height="14" viewBox="0 0 18 14" fill="none" xmlns="http://www.w3.org/2000/svg">
<path fill-rule="evenodd" clip-rule="evenodd" d="M0.875 1.375C0.875 1.02982 1.15482 0.75 1.5 0.75H16.5C16.8452 0.75 17.125 1.02982 17.125 1.375V12C17.125 12.3315 16.9933 12.6495 16.7589 12.8839C16.5245 13.1183 16.2065 13.25 15.875 13.25H2.125C1.79348 13.25 1.47554 13.1183 1.24112 12.8839C1.0067 12.6495 0.875 12.3315 0.875 12V1.375ZM3.10675 2L9 7.40214L14.8932 2H3.10675ZM15.875 2.79577L9.42233 8.71072C9.18338 8.92976 8.81662 8.92976 8.57767 8.71072L2.125 2.79577V12H15.875V2.79577Z" fill="#0D1619"/>
</svg>
