<svg width="16" height="16" viewBox="0 0 16 16" fill="none" xmlns="http://www.w3.org/2000/svg">
<path fill-rule="evenodd" clip-rule="evenodd" d="M7.15721 0.420783C7.38752 0.210523 7.68812 0.0939331 8 0.0939331C8.31192 0.0939331 8.61256 0.210554 8.84288 0.420865C8.84317 0.42113 8.84346 0.421395 8.84375 0.421661L15.0922 6.09994C15.0952 6.10263 15.0981 6.10535 15.101 6.1081C15.2245 6.22474 15.3234 6.36492 15.392 6.52039C15.4605 6.67585 15.4972 6.84345 15.4999 7.01331C15.5 7.01668 15.5 7.02005 15.5 7.02342V14.25C15.5 14.5815 15.3683 14.8994 15.1339 15.1339C14.8995 15.3683 14.5815 15.5 14.25 15.5H1.75C1.41848 15.5 1.10054 15.3683 0.866117 15.1339C0.631696 14.8994 0.5 14.5815 0.5 14.25V7.02342C0.5 7.02005 0.500027 7.01668 0.500082 7.01331C0.50283 6.84345 0.539539 6.67585 0.608047 6.52039C0.676556 6.36493 0.775478 6.22474 0.89899 6.1081C0.901897 6.10535 0.904831 6.10263 0.907791 6.09994L7.15625 0.421661C7.15657 0.421368 7.15689 0.421075 7.15721 0.420783ZM1.75592 7.01824L7.99846 1.34534L8 1.34393L8.00154 1.34534L14.2441 7.01825C14.2457 7.02009 14.2471 7.02219 14.2481 7.02446C14.2491 7.02683 14.2498 7.02935 14.25 7.03192V14.25H1.75V7.03192C1.75022 7.02935 1.75086 7.02683 1.75191 7.02446C1.75291 7.02218 1.75426 7.02009 1.75592 7.01824Z" fill="#0D1619"/>
</svg>
