<svg width="18" height="18" viewBox="0 0 18 18" fill="none" xmlns="http://www.w3.org/2000/svg">
<path fill-rule="evenodd" clip-rule="evenodd" d="M8.0625 2.125C4.78331 2.125 2.125 4.78331 2.125 8.0625C2.125 11.3417 4.78331 14 8.0625 14C11.3417 14 14 11.3417 14 8.0625C14 4.78331 11.3417 2.125 8.0625 2.125ZM0.875 8.0625C0.875 4.09295 4.09295 0.875 8.0625 0.875C12.032 0.875 15.25 4.09295 15.25 8.0625C15.25 9.82224 14.6176 11.4343 13.5677 12.6837L16.942 16.0581C17.1861 16.3021 17.1861 16.6979 16.942 16.9419C16.6979 17.186 16.3022 17.186 16.0581 16.9419L12.6838 13.5676C11.4343 14.6176 9.82226 15.25 8.0625 15.25C4.09295 15.25 0.875 12.032 0.875 8.0625Z" fill="#6B6C6C"/>
</svg>
