<svg width="18" height="18" viewBox="0 0 18 18" fill="none" xmlns="http://www.w3.org/2000/svg">
<path fill-rule="evenodd" clip-rule="evenodd" d="M6.32371 0.663036C6.49537 0.607624 6.68259 0.629077 6.83727 0.721881L8.66421 1.81805C8.88815 1.80804 9.11242 1.80805 9.33636 1.81807L11.1557 0.729322C11.3091 0.637524 11.4945 0.615808 11.6649 0.669662C12.8589 1.04687 13.9566 1.67904 14.882 2.52243C15.0147 2.64333 15.089 2.81543 15.0859 2.9949L15.0502 5.11852C15.1736 5.30797 15.2868 5.50385 15.3893 5.70533L17.2413 6.735C17.3972 6.8217 17.5087 6.97092 17.5476 7.14506C17.82 8.36543 17.8229 9.63057 17.556 10.8522C17.5176 11.0278 17.4055 11.1784 17.2482 11.2655L15.3891 12.2952C15.2866 12.4965 15.1734 12.6922 15.0502 12.8815L15.0859 15.0051C15.089 15.1846 15.0147 15.3567 14.882 15.4776C13.9585 16.3191 12.8655 16.9531 11.6765 17.337C11.5048 17.3924 11.3176 17.3709 11.1629 17.2781L9.33596 16.182C9.11202 16.192 8.88774 16.192 8.66381 16.1819L6.84446 17.2707C6.69106 17.3625 6.5057 17.3842 6.33524 17.3303C5.1413 16.9531 4.04361 16.321 3.11816 15.4776C2.98549 15.3567 2.9112 15.1845 2.91424 15.0051L2.95003 12.8863C2.82738 12.6948 2.7143 12.4975 2.61119 12.2949L0.758878 11.265C0.602935 11.1783 0.491482 11.0291 0.452603 10.8549C0.180129 9.63457 0.177254 8.36943 0.444177 7.14783C0.482553 6.97221 0.594696 6.82161 0.751959 6.73451L2.61111 5.70482C2.7136 5.50352 2.82672 5.30781 2.94999 5.11852L2.91423 2.9949C2.91121 2.81542 2.9855 2.64331 3.11818 2.52241C4.04168 1.68087 5.1347 1.04686 6.32371 0.663036ZM4.16893 3.26302L4.20312 5.29417C4.20534 5.42576 4.16596 5.55469 4.09059 5.66258C3.92296 5.90259 3.77619 6.15652 3.65191 6.42158C3.59603 6.54074 3.50397 6.63923 3.38883 6.703L1.61113 7.68757C1.45564 8.5557 1.45779 9.4448 1.61751 10.3122L3.38973 11.2975C3.50399 11.361 3.59545 11.4588 3.65125 11.577C3.77826 11.8462 3.9264 12.1048 4.09428 12.3506C4.16727 12.4574 4.20531 12.5843 4.20312 12.7137L4.16894 14.7369C4.84449 15.3076 5.61701 15.7524 6.44971 16.0502L8.18696 15.0106C8.29698 14.9447 8.42459 14.9143 8.55249 14.9235C8.8505 14.9448 9.14966 14.9448 9.44768 14.9235C9.57582 14.9143 9.70367 14.9448 9.81383 15.0109L11.5567 16.0567C12.3867 15.7542 13.1567 15.3074 13.8312 14.737L13.797 12.7058C13.7948 12.5742 13.8342 12.4453 13.9096 12.3374C14.0772 12.0974 14.224 11.8435 14.3483 11.5784C14.4041 11.4593 14.4962 11.3608 14.6113 11.297L16.389 10.3124C16.5445 9.4443 16.5424 8.55521 16.3827 7.68783L14.6104 6.7025C14.4957 6.63872 14.404 6.54043 14.3483 6.42158C14.224 6.15652 14.0772 5.90259 13.9096 5.66258C13.8342 5.55469 13.7948 5.42576 13.797 5.29417L13.8312 3.26311C13.1557 2.69242 12.3832 2.24759 11.5505 1.94982L9.81321 2.98943C9.70318 3.05527 9.57557 3.08568 9.44768 3.07653C9.14966 3.05522 8.8505 3.05522 8.55249 3.07653C8.42435 3.0857 8.2965 3.05516 8.18634 2.98906L6.44349 1.94335C5.61351 2.24585 4.84347 2.69261 4.16893 3.26302ZM9.00006 5.875C7.27417 5.875 5.87506 7.27411 5.87506 9C5.87506 10.7259 7.27417 12.125 9.00006 12.125C10.7259 12.125 12.1251 10.7259 12.1251 9C12.1251 7.27411 10.7259 5.875 9.00006 5.875ZM4.62506 9C4.62506 6.58375 6.58381 4.625 9.00006 4.625C11.4163 4.625 13.3751 6.58375 13.3751 9C13.3751 11.4162 11.4163 13.375 9.00006 13.375C6.58381 13.375 4.62506 11.4162 4.62506 9Z" fill="#0D1619"/>
</svg>
